<svg id="Flat" height="512" viewBox="0 0 512 512" width="512" xmlns="http://www.w3.org/2000/svg"><path d="m323.578 464.845-29.19-14.6-22.9-61.059a8 8 0 0 0 -14.982 5.618l21.66 57.76-34.282 20.576a8 8 0 1 0 8.232 13.72l36.234-21.741 28.072 14.036a8 8 0 0 0 7.156-14.31z" fill="#464c4f"/><path d="m232 352 16 56 32-8 24-96z" fill="#596063"/><path d="m267.579 464.845-29.19-14.6-22.9-61.059a8 8 0 1 0 -14.981 5.618l21.66 57.76-34.283 20.576a8 8 0 1 0 8.233 13.72l36.233-21.741 28.073 14.036a8 8 0 1 0 7.155-14.31z" fill="#464c4f"/><path d="m192.001 344v64l32-8 24-96z" fill="#596063"/><path d="m120 408-32 80h72l56-120z" fill="#464c4f"/><path d="m400 88s40-8 64 0c0 0-16-32-72-40 0 0-16-24-56-24-48 0-64 64-64 64s-107.389 104-160 264l16 8-80 88s152-24 288-160c0 0 104-112 32-144 0 0 8-32 32-56z" fill="#4f5659"/><g fill="#464c4f"><path d="m232 304a8 8 0 0 1 -6.784-12.24l22.939-36.7c-36.856 17.579-79.561 26.2-105 30.09a8 8 0 1 1 -2.417-15.816c30.997-4.734 88.662-16.734 126.612-43.844a8 8 0 0 1 11.434 10.75l-32.131 51.41c20.247-.763 57.971-3.184 90.583-10.866a8 8 0 0 1 3.669 15.573c-48.864 11.511-106.476 11.643-108.905 11.643z"/><path d="m127.99 368a8 8 0 0 1 -1.136-15.918c.261-.04 13.674-2.111 32.456-10.646a194.438 194.438 0 0 0 66.616-50.644 8 8 0 0 1 12.148 10.414c-49.392 57.624-106.534 66.369-108.943 66.712a7.88 7.88 0 0 1 -1.141.082z"/><circle cx="352" cy="72" r="8"/></g></svg>